<?xml version="1.0" encoding="utf-8"?>
<!-- Generator: Adobe Illustrator 16.2.1, SVG Export Plug-In . SVG Version: 6.00 Build 0)  -->
<!DOCTYPE svg PUBLIC "-//W3C//DTD SVG 1.1//EN" "http://www.w3.org/Graphics/SVG/1.1/DTD/svg11.dtd">
<svg version="1.1" id="レイヤー_1" xmlns="http://www.w3.org/2000/svg" xmlns:xlink="http://www.w3.org/1999/xlink" x="0px"
	 y="0px" width="348.699px" height="54.5px" viewBox="0 0 348.699 54.5" enable-background="new 0 0 348.699 54.5"
	 xml:space="preserve">
<g>
	<path fill="#FFFFFF" d="M83.1,53.2H83C72.6,53.2,59.7,46.8,54.4,29c-5.1,14.3-16,23.3-29.6,24.1C14.1,53.8,4.4,48.8,0.6,40.8
		C0.4,40.2,0.5,39.5,1,39c0.5-0.4,1.2-0.5,1.8-0.2c0,0,4.7,2.7,8.4,1.2c2-0.8,3.5-2.7,4.399-5.6c0.2-0.801,1.101-1.2,1.9-1
		c0.8,0.199,1.2,1.1,1,1.899c-1.2,3.8-3.3,6.4-6.2,7.5c-2.2,0.9-4.6,0.7-6.5,0.3c4.1,4.7,11.2,7.4,18.9,7
		C37.2,49.4,47.4,40.8,51.9,27.2l0.801-2.3c0.1-0.4,0.3-0.8,0.399-1.2c-1.6-6.5-3.5-17.5-0.6-21.4c0.8-1.1,1.899-1.6,3.3-1.6
		c1.9,0,3,0.9,3.6,1.7c2.4,3.4,0.4,10.7-3.1,21.5c0.3,1.4,0.7,2.7,1.1,4C60.3,38.6,68.8,50.2,83,50.2h0.1c9.7,0,17.8-6,20.601-15.3
		c0-0.101,0.1-0.2,0.1-0.4c-0.8-3.3-2.3-11.6,0.3-14.7c0.8-0.9,2-1.4,3.2-1.2c1.5,0.2,2.3,1.1,2.7,1.8c1.6,2.8-0.3,7.9-2.7,13.2
		c-0.2,0.4-0.3,0.801-0.5,1.101c0,0.1,0.1,0.2,0.1,0.3c3,10.7,11.101,14.8,17.801,14.1c6.6-0.699,14.5-6.5,15.3-20.399
		c0-0.8,0.7-1.4,1.5-1.4l0,0c0.8,0,1.5,0.601,1.5,1.4c0.8,14.6,7.399,19.8,13.3,19.8h0.1c5.101,0,10.7-3.8,12-10.4
		C168.5,37.4,168.6,36.7,168.7,36c0.1-0.8,0.899-1.3,1.699-1.3c0.801,0.1,1.4,0.8,1.301,1.6c-0.101,0.8-0.2,1.5-0.301,2.2
		c-0.5,4.3,0,7.5,1.4,9.1c0.8,0.9,1.9,1.4,3.4,1.4c3.3,0,5.1-2.9,6.1-5.9c-0.2-1.399-0.2-2.899-0.2-4.6c0.101-3.6,1-4.1,1.4-4.3
		c0.5-0.3,1.1-0.3,1.6,0.1c0.8,0.5,1.101,1.601,1,3.8c-0.1,1.5-0.3,3.4-0.899,5.301c0.399,2.199,1.1,3.5,1.8,4.199
		c0.8,0.801,1.899,1.2,3.2,1.2c5.199,0,8.3-7.7,9.1-15.3c0.1-0.5,0.3-0.9,0.7-1.1C200.4,32.2,200.9,32.1,201.4,32.3
		c7.9,3.601,9.9,9.5,9.101,13.8c-0.2,0.9-0.4,1.7-0.8,2.4c1.6,0.5,4.199,0.6,7.3-0.8c2.399-1.101,6.3-4.8,8.1-16.601
		c0.101-2,0.4-4,0.7-6.2c0.1-0.8,0.9-1.3,1.7-1.2c0.8,0.1,1.399,0.8,1.3,1.6c-0.2,2.2-0.4,4.3-0.7,6.101
		c-0.5,8.3,1.4,12.6,3.2,14.699c2.1,2.4,4.7,2.9,6.6,2.9c5.4-0.1,8.4-5.3,9.601-8.3c0.3-0.7,0.5-1.4,0.8-2.101
		c0.9-2.6,1.9-5.5,4.7-5.5c1.5,0,2.3,0.601,2.8,1.2c0.6,0.601,0.9,1.5,1.1,2.601c1.9-2.5,4.601-3.7,7.4-3.301
		c2.5,0.4,4.6,2.101,5.5,4.601c0.2,0.6,0.4,1.2,0.6,1.8c1.2,3.5,2.101,6,5.601,7.7c2.5,1.3,5.399,1.3,8,0.8c-2-1.5-3.2-3.6-3.601-6
		c-0.399-2.6,0.5-5.4,2.2-7.2c1.5-1.6,3.601-2.399,5.601-2.3c2.1,0.1,4,1.2,5.399,2.9c1.3,1.699,1.8,4,1.4,6.399
		c-0.4,2.5-1.8,4.7-3.7,6.2c3.4,0.8,7,0.4,9.8-1.1c3.4-1.9,7.4-10.4,8.5-20.601c0-0.5,0.1-1.1,0.1-1.6l0.101-0.8
		c0.1-0.8,0.8-1.4,1.6-1.4c0.8,0.1,1.4,0.8,1.4,1.6c0,0.8-0.101,1.6-0.2,2.4c-0.7,9.3-1.2,17.1,1.8,20.4c1.101,1.199,2.7,1.8,5,1.8
		l0,0c2.5,0,4.8-0.8,6.7-1.9c-3.8-4.1-3.4-8.5-1.3-11.2c2.1-2.6,5.5-3.3,8.3-1.6c2,1.2,2.8,3.6,2,6.4c-0.6,2.199-2.1,4.5-4.2,6.5
		c2.8,1.6,5.8,1.399,8,0.6c3-1.1,4.9-3.5,5.2-6.2c0.1-0.8,0.8-1.5,1.6-1.399c0.801,0.1,1.4,0.8,1.4,1.6c-0.3,4-3,7.3-7.1,8.8
		c-3.9,1.4-8.2,0.8-11.5-1.5c-2.601,1.7-5.7,2.9-9,2.9l0,0c-3.101,0-5.5-0.9-7.2-2.7c-1.8-2-2.7-4.9-3-8.4
		c-1.8,4.4-4.2,7.7-6.7,9.101c-4.3,2.399-9.899,2.5-14.8,0.399c-3.7,1.5-8.6,2.101-13-0.1c-4.6-2.3-5.8-5.8-7.1-9.4
		c-0.2-0.6-0.4-1.199-0.601-1.8c-0.5-1.5-1.7-2.399-3.1-2.6c-1.7-0.2-3.4,0.6-4.601,2.3c-2.3,3.1-3.2,8.5-3.399,10.6
		C255.9,50.1,255.9,50.4,255.9,50.4c-0.1,0.8-0.8,1.399-1.6,1.3c-0.8-0.101-1.4-0.8-1.4-1.601c0-0.1,0-0.399,0.101-1
		c0.2-2.1,0.8-7.199,1.1-10c0.2-1.899-0.2-2.399-0.3-2.5c0,0-0.2-0.199-0.6-0.199c-0.7,0-1.4,1.8-1.9,3.399
		c-0.3,0.7-0.5,1.5-0.8,2.3c-2.7,6.5-7.101,10.101-12.4,10.2c-3.5,0-6.7-1.3-8.899-3.899c-1.601-1.801-2.7-4.2-3.4-7.101
		c-2.2,5.7-5,8.3-7.4,9.4c-4.3,2-8.3,1.6-10.6,0.5c-0.7,0.5-1.4,0.7-2.1,0.8c-3.801,0.3-4.5-1.5-4.7-2.3c-0.2-1.3,0.6-2.5,1.899-2.9
		c1.2-0.399,2.7,0.101,4.2,0.7c0.2-0.5,0.4-1,0.5-1.6c0.5-2.9-0.7-6.7-5.5-9.601c-1.3,8-4.899,15.8-11.8,15.8
		c-2.2,0-4-0.699-5.4-2.1c-0.6-0.6-1-1.3-1.399-2.1c-1.601,2.5-3.9,4.399-7.3,4.399c-2.4,0-4.301-0.8-5.7-2.399
		c-1-1.101-1.601-2.601-2-4.4c-3,4.1-7.8,6.4-12.2,6.4c-5.8,0-12.2-3.9-14.9-13.9c-2.399,7.2-7.5,13.5-16.3,14.5
		c-9.7,1.1-16.7-5.4-19.899-13C101.3,47.8,92.9,53.2,83.1,53.2z M288.3,35.8c-1.1,0-2.2,0.5-3.1,1.4c-1.101,1.1-1.601,3-1.4,4.7
		c0.2,1.3,0.9,3.199,3.2,4.6c0.3,0.2,0.7,0.4,1,0.6c0.5-0.199,0.899-0.5,1.399-0.8c1.601-1,2.7-2.7,3-4.7c0.301-1.6,0-3-0.8-4
		c-0.8-1.1-1.899-1.699-3.2-1.8H288.3z M330.199,36.4c-1.1,0-2.1,0.6-2.699,1.399c-1.2,1.5-1.601,4.4,1.399,7.5
		c1.9-1.7,3.2-3.7,3.7-5.399c0.3-1,0.4-2.4-0.7-3C331.3,36.5,330.699,36.4,330.199,36.4z M106.8,21.7c-0.2,0-0.3,0.1-0.4,0.2
		c-0.899,1.1-0.899,4.3-0.5,7.6c1.101-2.8,2.2-6.3,1.5-7.5c0-0.1-0.1-0.2-0.5-0.3H106.8z M55.7,3.7c-0.4,0-0.601,0.1-0.9,0.4
		c-1.4,1.9-1,7.8,0,13.8c1.9-6,3.3-12,2-13.8C56.7,3.9,56.4,3.7,55.7,3.7z"/>
	<path fill="#FFFFFF" d="M232.2,32.8h-11.5c-0.801,0-1.5-0.7-1.5-1.5s0.699-1.5,1.5-1.5h11.5c0.8,0,1.5,0.7,1.5,1.5
		S233,32.8,232.2,32.8z"/>
	<path fill="#FFFFFF" d="M316.5,32.8h-12.8c-0.801,0-1.5-0.7-1.5-1.5s0.699-1.5,1.5-1.5h12.8c0.8,0,1.5,0.7,1.5,1.5
		S317.3,32.8,316.5,32.8z"/>
</g>
</svg>
